<svg width="40" height="39" viewBox="0 0 40 39" fill="none" xmlns="http://www.w3.org/2000/svg">
<g clip-path="url(#clip0_15_2)">
<rect width="40" height="39" rx="19.5" fill="#415A77"/>
<path d="M21.8574 14.5039C21.8574 14.6016 21.8346 14.722 21.7891 14.8652C21.6328 15.2884 21.4928 15.6562 21.3691 15.9688L16.1934 28.5371L12.5117 20.3145L8.69336 28.5371L2.91211 14.1816H8.26367L11.0078 21.4961L14.7285 13.5566L18.1953 21.4766L20.6367 15.7441C20.7214 15.5293 20.793 15.3177 20.8516 15.1094L21.0176 14.5137C21.0892 14.2207 21.2454 14.0742 21.4863 14.0742C21.7337 14.0742 21.8574 14.2174 21.8574 14.5039ZM30.373 23.9473L31.2422 23.9863C32.5052 23.9863 33.5469 23.5697 34.3672 22.7363C35.2005 21.8965 35.6367 20.8092 35.6758 19.4746C35.7474 17.4173 34.7578 16.0273 32.707 15.3047C31.9388 15.0312 30.9395 14.8945 29.709 14.8945H28.8887V28H23.9082V14.1816H27.6484C29.6667 14.1816 30.8841 14.2109 31.3008 14.2695C31.7174 14.3281 32.1504 14.403 32.5996 14.4941C33.0553 14.5853 33.5436 14.7839 34.0645 15.0898C34.5918 15.3958 35.0378 15.7604 35.4023 16.1836C36.138 17.043 36.4928 18.0521 36.4668 19.2109C36.4277 20.6888 35.9948 21.9193 35.168 22.9023C34.3281 23.8919 33.1693 24.5039 31.6914 24.7383C31.2617 24.7969 30.9232 24.8262 30.6758 24.8262C30.0898 24.8262 29.7969 24.6667 29.7969 24.3477C29.7969 24.2305 29.849 24.1361 29.9531 24.0645C30.0573 23.9863 30.1973 23.9473 30.373 23.9473Z" fill="white"/>
</g>
<defs>
<clipPath id="clip0_15_2">
<rect width="40" height="39" fill="white"/>
</clipPath>
</defs>
</svg>
